<?xml version="1.0" encoding="UTF-8"?>
<!DOCTYPE svg PUBLIC "-//W3C//DTD SVG 1.1//EN" "http://www.w3.org/Graphics/SVG/1.1/DTD/svg11.dtd">
<svg xmlns="http://www.w3.org/2000/svg" version="1.1" width="180px" height="90px" style="shape-rendering:geometricPrecision; text-rendering:geometricPrecision; image-rendering:optimizeQuality; fill-rule:evenodd; clip-rule:evenodd" xmlns:xlink="http://www.w3.org/1999/xlink">
<g><path style="opacity:0.649" fill="#5e3687" d="M 92.5,10.5 C 92.5,11.8333 92.5,13.1667 92.5,14.5C 88.0966,10.9867 83.0966,9.82 77.5,11C 74.1825,12.0852 73.8492,13.5852 76.5,15.5C 83.1057,12.8216 88.439,14.4883 92.5,20.5C 92.5,21.8333 92.5,23.1667 92.5,24.5C 92.5,25.1667 92.5,25.8333 92.5,26.5C 92.5,27.8333 92.5,29.1667 92.5,30.5C 91.8826,30.3893 91.3826,30.056 91,29.5C 90.3378,30.9839 89.5045,32.3172 88.5,33.5C 87.1667,33.5 85.8333,33.5 84.5,33.5C 85.412,31.4048 86.5787,29.4048 88,27.5C 88.7796,25.6131 88.6129,23.9464 87.5,22.5C 87.1933,27.1281 85.1933,30.7948 81.5,33.5C 80.1667,33.5 78.8333,33.5 77.5,33.5C 78.8421,30.8342 80.6755,28.5008 83,26.5C 83.6987,24.9262 83.3654,23.5929 82,22.5C 78.2684,26.0622 74.7684,29.7288 71.5,33.5C 70.1667,33.5 68.8333,33.5 67.5,33.5C 68.1217,32.3734 68.955,31.3734 70,30.5C 70.3333,23.8333 70.6667,17.1667 71,10.5C 78.2764,5.17898 85.4431,5.17898 92.5,10.5 Z M 87.5,22.5 C 83.0189,18.2515 79.0189,18.5849 75.5,23.5C 76.9083,17.9648 80.2416,16.4648 85.5,19C 86.8228,19.8159 87.4894,20.9826 87.5,22.5 Z"/></g>
<g><path style="opacity:0.633" fill="#bb9abf" d="M 92.5,10.5 C 94.1376,11.657 95.8043,12.8236 97.5,14C 104.191,14.1691 110.858,14.6691 117.5,15.5C 118.943,18.6737 120.276,21.8404 121.5,25C 120.445,28.0154 119.112,30.8487 117.5,33.5C 116.167,33.5 114.833,33.5 113.5,33.5C 116.675,28.6613 117.008,23.6613 114.5,18.5C 112.926,17.3691 111.259,17.2025 109.5,18C 113.643,23.4846 113.31,28.6513 108.5,33.5C 104.5,33.5 100.5,33.5 96.5,33.5C 94.5956,33.2624 93.2623,32.2624 92.5,30.5C 92.5,29.1667 92.5,27.8333 92.5,26.5C 95.1967,29.0979 98.3633,30.7646 102,31.5C 105.133,31.8581 106.967,30.5248 107.5,27.5C 106.026,29.1373 104.192,30.1373 102,30.5C 98.2772,29.3882 95.1106,27.3882 92.5,24.5C 92.5,23.1667 92.5,21.8333 92.5,20.5C 94.8863,21.3733 96.8863,22.8733 98.5,25C 100.025,26.0086 101.692,26.5086 103.5,26.5C 103.649,25.448 103.483,24.448 103,23.5C 99.3081,20.6352 95.8081,17.6352 92.5,14.5C 92.5,13.1667 92.5,11.8333 92.5,10.5 Z M 103.5,18.5 C 108.249,20.0673 109.583,23.0673 107.5,27.5C 107.66,25.8008 107.494,24.1341 107,22.5C 105.624,21.2949 104.458,19.9616 103.5,18.5 Z"/></g>
<g><path style="opacity:0.668" fill="#fecfe2" d="M 67.5,33.5 C 68.8333,33.5 70.1667,33.5 71.5,33.5C 69.1923,36.9582 67.859,40.7915 67.5,45C 67.6667,46.5 67.8333,48 68,49.5C 69.1531,51.497 70.6531,51.8304 72.5,50.5C 70.0247,46.9494 69.858,43.2828 72,39.5C 74.068,37.6038 75.9013,35.6038 77.5,33.5C 78.8333,33.5 80.1667,33.5 81.5,33.5C 82.3478,34.625 83.3478,34.625 84.5,33.5C 85.8333,33.5 87.1667,33.5 88.5,33.5C 87.6971,34.4232 87.5304,35.4232 88,36.5C 89.6147,37.3862 91.1147,38.3862 92.5,39.5C 92.5,43.1667 92.5,46.8333 92.5,50.5C 88.8951,48.0735 85.3951,45.4068 82,42.5C 81.1667,43.3333 80.3333,44.1667 79.5,45C 84.0272,48.6987 88.3605,52.532 92.5,56.5C 92.5,57.8333 92.5,59.1667 92.5,60.5C 91.8333,60.1667 91.1667,59.8333 90.5,59.5C 90.0269,58.0937 89.0269,57.427 87.5,57.5C 87.3893,56.8826 87.056,56.3826 86.5,56C 79.5863,55.814 72.7529,55.314 66,54.5C 62.3114,47.1675 62.8114,40.1675 67.5,33.5 Z M 77.5,49.5 C 74.1974,47.0613 73.6974,44.0613 76,40.5C 78.855,37.6397 82.0217,37.1397 85.5,39C 93.4104,46.8446 93.0771,47.1779 84.5,40C 76.6867,39.3391 74.3534,42.5058 77.5,49.5 Z M 77.5,49.5 C 79.0269,49.427 80.0269,50.0937 80.5,51.5C 78.9731,51.573 77.9731,50.9063 77.5,49.5 Z"/></g>
<g><path style="opacity:0.684" fill="#ec59b2" d="M 96.5,33.5 C 100.5,33.5 104.5,33.5 108.5,33.5C 106.485,36.8384 103.985,39.8384 101,42.5C 100.226,44.403 100.56,46.0696 102,47.5C 106.075,42.9349 109.909,38.2683 113.5,33.5C 114.833,33.5 116.167,33.5 117.5,33.5C 116.627,35.8863 115.127,37.8863 113,39.5C 112.501,45.4908 112.334,51.4908 112.5,57.5C 112.5,58.1667 112.5,58.8333 112.5,59.5C 111.5,60.1667 110.5,60.8333 109.5,61.5C 107.708,61.366 106.042,61.6993 104.5,62.5C 100.258,62.9208 96.2576,62.2541 92.5,60.5C 92.5,59.1667 92.5,57.8333 92.5,56.5C 93.391,57.1098 94.391,57.4431 95.5,57.5C 99.8333,60.1667 104.167,60.1667 108.5,57.5C 109.126,53.8046 108.126,52.9712 105.5,55C 99.9676,56.6191 95.6343,55.1191 92.5,50.5C 92.5,46.8333 92.5,43.1667 92.5,39.5C 94.2516,37.7541 95.5849,35.7541 96.5,33.5 Z M 107.5,47.5 C 104.722,52.755 101.055,53.4217 96.5,49.5C 94.1308,43.841 95.6308,39.1743 101,35.5C 100.253,37.9755 98.9194,40.3089 97,42.5C 95.6426,47.1263 97.3092,49.7929 102,50.5C 104.192,50.1373 106.026,49.1373 107.5,47.5 Z"/></g>
<g><path style="opacity:0.017" fill="#ec59b2" d="M 87.5,57.5 C 89.0269,57.427 90.0269,58.0937 90.5,59.5C 60.8333,59.5 31.1667,59.5 1.5,59.5C 1.5,68.8333 1.5,78.1667 1.5,87.5C 30.8333,87.5 60.1667,87.5 89.5,87.5C 89.5,88.1667 89.5,88.8333 89.5,89.5C 59.8333,89.5 30.1667,89.5 0.5,89.5C 0.5,88.8333 0.166667,88.5 -0.5,88.5C -0.5,78.5 -0.5,68.5 -0.5,58.5C 0.530694,57.645 1.69736,56.9783 3,56.5C 31.1348,57.4876 59.3014,57.8209 87.5,57.5 Z"/></g>
<g><path style="opacity:0.004" fill="#7e167f" d="M 95.5,57.5 C 99.8333,57.5 104.167,57.5 108.5,57.5C 104.167,60.1667 99.8333,60.1667 95.5,57.5 Z"/></g>
<g><path style="opacity:0.004" fill="#7e167f" d="M 112.5,57.5 C 134.833,57.5 157.167,57.5 179.5,57.5C 179.5,58.1667 179.5,58.8333 179.5,59.5C 157.167,59.5 134.833,59.5 112.5,59.5C 112.5,58.8333 112.5,58.1667 112.5,57.5 Z"/></g>
<g><path style="opacity:0.653" fill="#ec5ab2" d="M 3.5,61.5 C 6.5,61.5 9.5,61.5 12.5,61.5C 12.3359,64.1873 12.5026,66.854 13,69.5C 15.3333,68.1667 17.6667,68.1667 20,69.5C 20.4974,66.854 20.6641,64.1873 20.5,61.5C 23.8333,61.5 27.1667,61.5 30.5,61.5C 30.5,69.5 30.5,77.5 30.5,85.5C 27.1667,85.5 23.8333,85.5 20.5,85.5C 20.6641,82.8127 20.4974,80.146 20,77.5C 16,78.8333 12,78.8333 8,77.5C 7.33333,79.1667 7.33333,80.8333 8,82.5C 8.48278,81.552 8.64945,80.552 8.5,79.5C 9.83333,79.5 11.1667,79.5 12.5,79.5C 12.5,81.5 12.5,83.5 12.5,85.5C 9.5,85.5 6.5,85.5 3.5,85.5C 3.5,81.8333 3.5,78.1667 3.5,74.5C 10.5,74.5 17.5,74.5 24.5,74.5C 25.8505,74.9366 25.8505,74.2699 24.5,72.5C 19.1667,72.5 13.8333,72.5 8.5,72.5C 8.16667,63.1667 7.83333,63.1667 7.5,72.5C 6.16667,72.5 4.83333,72.5 3.5,72.5C 3.5,68.8333 3.5,65.1667 3.5,61.5 Z"/></g>
<g><path style="opacity:0.648" fill="#ec5ab2" d="M 32.5,61.5 C 41.5,61.5 50.5,61.5 59.5,61.5C 59.5,64.5 59.5,67.5 59.5,70.5C 53.8236,70.3339 48.1569,70.5006 42.5,71C 46.8206,71.499 51.1539,71.6657 55.5,71.5C 55.5,72.8333 55.5,74.1667 55.5,75.5C 49.8333,75.5 44.1667,75.5 38.5,75.5C 38.5,72.5 38.5,69.5 38.5,66.5C 44.1764,66.6661 49.8431,66.4994 55.5,66C 49.5092,65.5005 43.5092,65.3338 37.5,65.5C 37.3339,71.1764 37.5006,76.8431 38,82.5C 44.0222,81.5589 49.8555,81.2256 55.5,81.5C 49.8722,80.5046 44.2055,80.1712 38.5,80.5C 38.5,79.1667 38.5,77.8333 38.5,76.5C 45.5,76.5 52.5,76.5 59.5,76.5C 59.5,79.5 59.5,82.5 59.5,85.5C 50.5,85.5 41.5,85.5 32.5,85.5C 32.5,77.5 32.5,69.5 32.5,61.5 Z"/></g>
<g><path style="opacity:0.656" fill="#ec5ab2" d="M 74.5,67.5 C 76.0542,66.0858 77.3875,64.4192 78.5,62.5C 82.1667,61.1667 85.8333,61.1667 89.5,62.5C 87,66.1667 84.5,69.8333 82,73.5C 81.5012,77.4862 81.3345,81.4862 81.5,85.5C 78.1667,85.5 74.8333,85.5 71.5,85.5C 71.6655,81.4862 71.4988,77.4862 71,73.5C 68.5,69.8333 66,66.1667 63.5,62.5C 67.1667,61.1667 70.8333,61.1667 74.5,62.5C 75.5353,64.1284 75.5353,65.795 74.5,67.5 Z M 80.5,67.5 C 80.5173,65.9719 81.184,65.4719 82.5,66C 81.9558,66.7172 81.2891,67.2172 80.5,67.5 Z M 71.5,66.5 C 72.391,67.1098 73.391,67.4431 74.5,67.5C 74.2668,70.9536 75.6001,71.9536 78.5,70.5C 78.2488,72.1703 77.5822,73.6703 76.5,75C 77.9233,77.62 77.7566,80.12 76,82.5C 75.6667,79.1667 75.3333,75.8333 75,72.5C 73.5576,70.6089 72.3909,68.6089 71.5,66.5 Z M 80.5,67.5 C 80.573,69.0269 79.9063,70.0269 78.5,70.5C 78.427,68.9731 79.0937,67.9731 80.5,67.5 Z"/></g>
<g><path style="opacity:0.657" fill="#7f167f" d="M 109.5,61.5 C 113.556,69.3771 118.223,77.5437 123.5,86C 119.645,85.9414 115.811,85.4414 112,84.5C 110.304,82.4404 109.137,80.1071 108.5,77.5C 108.728,75.6031 109.728,74.2697 111.5,73.5C 111.192,72.6919 110.692,72.0253 110,71.5C 107.5,75.8333 105,80.1667 102.5,84.5C 99.2959,85.2036 96.1292,85.8702 93,86.5C 92.6667,86.1667 92.3333,85.8333 92,85.5C 95.5883,77.6666 99.755,69.9999 104.5,62.5C 106.042,61.6993 107.708,61.366 109.5,61.5 Z M 107.5,66.5 C 106.921,69.3311 105.588,71.6644 103.5,73.5C 104.079,70.6689 105.412,68.3356 107.5,66.5 Z M 103.5,73.5 C 102.921,76.3311 101.588,78.6644 99.5,80.5C 100.079,77.6689 101.412,75.3356 103.5,73.5 Z M 112.5,76.5 C 114.25,77.6594 115.25,79.326 115.5,81.5C 113.75,80.3406 112.75,78.674 112.5,76.5 Z M 99.5,80.5 C 99.4827,82.0281 98.816,82.5281 97.5,82C 98.0442,81.2828 98.7109,80.7828 99.5,80.5 Z"/></g>
<g><path style="opacity:0.638" fill="#7e167f" d="M 125.5,61.5 C 133.174,61.3336 140.841,61.5003 148.5,62C 153.808,66.2373 153.808,70.5706 148.5,75C 142.509,75.4995 136.509,75.6662 130.5,75.5C 130.337,77.8568 130.503,80.1902 131,82.5C 131.495,80.5273 131.662,78.5273 131.5,76.5C 132.833,76.5 134.167,76.5 135.5,76.5C 135.5,79.5 135.5,82.5 135.5,85.5C 132.167,85.5 128.833,85.5 125.5,85.5C 125.5,80.8333 125.5,76.1667 125.5,71.5C 132.841,71.6663 140.174,71.4997 147.5,71C 148.833,69.3333 148.833,67.6667 147.5,66C 141.5,65.3333 135.5,65.3333 129.5,66C 135.167,66.3333 140.833,66.6667 146.5,67C 147.451,67.7175 147.617,68.5509 147,69.5C 139.921,70.4799 132.755,70.8132 125.5,70.5C 125.5,67.5 125.5,64.5 125.5,61.5 Z"/></g>
<g><path style="opacity:0.676" fill="#7e167f" d="M 179.5,63.5 C 179.5,66.8333 179.5,70.1667 179.5,73.5C 178.527,73.9867 177.527,74.4867 176.5,75C 170.509,75.4995 164.509,75.6662 158.5,75.5C 158.337,77.8568 158.503,80.1902 159,82.5C 159.495,80.5273 159.662,78.5273 159.5,76.5C 160.833,76.5 162.167,76.5 163.5,76.5C 163.5,79.5 163.5,82.5 163.5,85.5C 160.5,85.5 157.5,85.5 154.5,85.5C 154.5,80.8333 154.5,76.1667 154.5,71.5C 161.687,71.8245 168.687,71.4912 175.5,70.5C 168.5,70.5 161.5,70.5 154.5,70.5C 154.5,67.5 154.5,64.5 154.5,61.5C 162.174,61.3336 169.841,61.5003 177.5,62C 178.044,62.7172 178.711,63.2172 179.5,63.5 Z M 175.5,70.5 C 175.5,69.1667 175.5,67.8333 175.5,66.5C 169.824,66.6661 164.157,66.4994 158.5,66C 164.528,65.1697 170.528,65.3364 176.5,66.5C 177.932,68.297 177.599,69.6303 175.5,70.5 Z"/></g>
<g><path style="opacity:0.024" fill="#7e167f" d="M 89.5,87.5 C 119.5,87.5 149.5,87.5 179.5,87.5C 179.5,88.1667 179.5,88.8333 179.5,89.5C 149.5,89.5 119.5,89.5 89.5,89.5C 89.5,88.8333 89.5,88.1667 89.5,87.5 Z"/></g>
</svg>
